<?xml version="1.0" encoding="UTF-8" standalone="no"?>
<!DOCTYPE svg PUBLIC "-//W3C//DTD SVG 1.1//EN"
 "http://www.w3.org/Graphics/SVG/1.1/DTD/svg11.dtd">
<!-- Generated by graphviz version 5.0.0 (20220707.1540)
 -->
<!-- Title: dependencies Pages: 1 -->
<svg width="1769pt" height="247pt"
 viewBox="0.00 0.00 1769.00 246.80" xmlns="http://www.w3.org/2000/svg" xmlns:xlink="http://www.w3.org/1999/xlink">
<g id="graph0" class="graph" transform="scale(1 1) rotate(0) translate(4 242.8)">
<title>dependencies</title>
<polygon fill="white" stroke="transparent" points="-4,4 -4,-242.8 1765,-242.8 1765,4 -4,4"/>
<text text-anchor="middle" x="880.5" y="-8.2" font-family="sans-serif" font-size="14.00">dependencies</text>
<g id="clust1" class="cluster">
<title>cluster_AppModule</title>
<polygon fill="none" stroke="black" stroke-dasharray="1,5" points="8,-32.8 8,-230.8 1753,-230.8 1753,-32.8 8,-32.8"/>
</g>
<g id="clust14" class="cluster">
<title>cluster_AppModule_imports</title>
<polygon fill="none" stroke="black" points="1601,-40.8 1601,-92.8 1745,-92.8 1745,-40.8 1601,-40.8"/>
</g>
<g id="clust16" class="cluster">
<title>cluster_AppModule_bootstrap</title>
<polygon fill="none" stroke="black" points="806,-170.8 806,-222.8 930,-222.8 930,-170.8 806,-170.8"/>
</g>
<g id="clust2" class="cluster">
<title>cluster_AppModule_declarations</title>
<polygon fill="none" stroke="black" points="16,-40.8 16,-92.8 1593,-92.8 1593,-40.8 16,-40.8"/>
</g>
<!-- AppComponent -->
<g id="node1" class="node">
<title>AppComponent</title>
<polygon fill="#ffffb3" stroke="black" points="1584.94,-84.8 1479.06,-84.8 1479.06,-48.8 1584.94,-48.8 1584.94,-84.8"/>
<text text-anchor="middle" x="1532" y="-62.6" font-family="Times,serif" font-size="14.00">AppComponent</text>
</g>
<!-- AppModule -->
<g id="node12" class="node">
<title>AppModule</title>
<polygon fill="#8dd3c7" stroke="black" points="909.66,-149.8 906.66,-153.8 885.66,-153.8 882.66,-149.8 826.34,-149.8 826.34,-113.8 909.66,-113.8 909.66,-149.8"/>
<text text-anchor="middle" x="868" y="-127.6" font-family="Times,serif" font-size="14.00">AppModule</text>
</g>
<!-- AppComponent&#45;&gt;AppModule -->
<g id="edge1" class="edge">
<title>AppComponent&#45;&gt;AppModule</title>
<path fill="none" stroke="black" d="M1532,-85.08C1532,-106.12 1532,-137.8 1532,-137.8 1532,-137.8 919.79,-137.8 919.79,-137.8"/>
<polygon fill="black" stroke="black" points="919.79,-134.3 909.79,-137.8 919.79,-141.3 919.79,-134.3"/>
</g>
<!-- DeletedTodoComponent -->
<g id="node2" class="node">
<title>DeletedTodoComponent</title>
<polygon fill="#ffffb3" stroke="black" points="1461.41,-84.8 1306.59,-84.8 1306.59,-48.8 1461.41,-48.8 1461.41,-84.8"/>
<text text-anchor="middle" x="1384" y="-62.6" font-family="Times,serif" font-size="14.00">DeletedTodoComponent</text>
</g>
<!-- DeletedTodoComponent&#45;&gt;AppModule -->
<g id="edge2" class="edge">
<title>DeletedTodoComponent&#45;&gt;AppModule</title>
<path fill="none" stroke="black" d="M1384,-84.91C1384,-104.14 1384,-131.8 1384,-131.8 1384,-131.8 919.79,-131.8 919.79,-131.8"/>
<polygon fill="black" stroke="black" points="919.79,-128.3 909.79,-131.8 919.79,-135.3 919.79,-128.3"/>
</g>
<!-- FavoriteTodoComponent -->
<g id="node3" class="node">
<title>FavoriteTodoComponent</title>
<polygon fill="#ffffb3" stroke="black" points="1288.54,-84.8 1131.46,-84.8 1131.46,-48.8 1288.54,-48.8 1288.54,-84.8"/>
<text text-anchor="middle" x="1210" y="-62.6" font-family="Times,serif" font-size="14.00">FavoriteTodoComponent</text>
</g>
<!-- FavoriteTodoComponent&#45;&gt;AppModule -->
<g id="edge3" class="edge">
<title>FavoriteTodoComponent&#45;&gt;AppModule</title>
<path fill="none" stroke="black" d="M1210,-84.82C1210,-102.17 1210,-125.8 1210,-125.8 1210,-125.8 919.94,-125.8 919.94,-125.8"/>
<polygon fill="black" stroke="black" points="919.94,-122.3 909.94,-125.8 919.94,-129.3 919.94,-122.3"/>
</g>
<!-- HttpComponent -->
<g id="node4" class="node">
<title>HttpComponent</title>
<polygon fill="#ffffb3" stroke="black" points="1113.22,-84.8 1006.78,-84.8 1006.78,-48.8 1113.22,-48.8 1113.22,-84.8"/>
<text text-anchor="middle" x="1060" y="-62.6" font-family="Times,serif" font-size="14.00">HttpComponent</text>
</g>
<!-- HttpComponent&#45;&gt;AppModule -->
<g id="edge4" class="edge">
<title>HttpComponent&#45;&gt;AppModule</title>
<path fill="none" stroke="black" d="M1060,-85.04C1060,-100.37 1060,-119.8 1060,-119.8 1060,-119.8 920.14,-119.8 920.14,-119.8"/>
<polygon fill="black" stroke="black" points="920.14,-116.3 910.14,-119.8 920.14,-123.3 920.14,-116.3"/>
</g>
<!-- LoginComponent -->
<g id="node5" class="node">
<title>LoginComponent</title>
<polygon fill="#ffffb3" stroke="black" points="989.27,-84.8 874.73,-84.8 874.73,-48.8 989.27,-48.8 989.27,-84.8"/>
<text text-anchor="middle" x="932" y="-62.6" font-family="Times,serif" font-size="14.00">LoginComponent</text>
</g>
<!-- LoginComponent&#45;&gt;AppModule -->
<g id="edge5" class="edge">
<title>LoginComponent&#45;&gt;AppModule</title>
<path fill="none" stroke="black" d="M892.22,-84.91C892.22,-84.91 892.22,-103.79 892.22,-103.79"/>
<polygon fill="black" stroke="black" points="888.72,-103.79 892.22,-113.79 895.72,-103.79 888.72,-103.79"/>
</g>
<!-- NavComponent -->
<g id="node6" class="node">
<title>NavComponent</title>
<polygon fill="#ffffb3" stroke="black" points="856.16,-84.8 751.84,-84.8 751.84,-48.8 856.16,-48.8 856.16,-84.8"/>
<text text-anchor="middle" x="804" y="-62.6" font-family="Times,serif" font-size="14.00">NavComponent</text>
</g>
<!-- NavComponent&#45;&gt;AppModule -->
<g id="edge6" class="edge">
<title>NavComponent&#45;&gt;AppModule</title>
<path fill="none" stroke="black" d="M841.25,-84.91C841.25,-84.91 841.25,-103.79 841.25,-103.79"/>
<polygon fill="black" stroke="black" points="837.75,-103.79 841.25,-113.79 844.75,-103.79 837.75,-103.79"/>
</g>
<!-- NotFoundComponent -->
<g id="node7" class="node">
<title>NotFoundComponent</title>
<polygon fill="#ffffb3" stroke="black" points="734.12,-84.8 595.88,-84.8 595.88,-48.8 734.12,-48.8 734.12,-84.8"/>
<text text-anchor="middle" x="665" y="-62.6" font-family="Times,serif" font-size="14.00">NotFoundComponent</text>
</g>
<!-- NotFoundComponent&#45;&gt;AppModule -->
<g id="edge7" class="edge">
<title>NotFoundComponent&#45;&gt;AppModule</title>
<path fill="none" stroke="black" d="M665,-85.04C665,-100.37 665,-119.8 665,-119.8 665,-119.8 815.94,-119.8 815.94,-119.8"/>
<polygon fill="black" stroke="black" points="815.94,-123.3 825.94,-119.8 815.94,-116.3 815.94,-123.3"/>
</g>
<!-- SignUpComponent -->
<g id="node8" class="node">
<title>SignUpComponent</title>
<polygon fill="#ffffb3" stroke="black" points="578.12,-84.8 453.88,-84.8 453.88,-48.8 578.12,-48.8 578.12,-84.8"/>
<text text-anchor="middle" x="516" y="-62.6" font-family="Times,serif" font-size="14.00">SignUpComponent</text>
</g>
<!-- SignUpComponent&#45;&gt;AppModule -->
<g id="edge8" class="edge">
<title>SignUpComponent&#45;&gt;AppModule</title>
<path fill="none" stroke="black" d="M516,-84.82C516,-102.17 516,-125.8 516,-125.8 516,-125.8 816.24,-125.8 816.24,-125.8"/>
<polygon fill="black" stroke="black" points="816.24,-129.3 826.24,-125.8 816.24,-122.3 816.24,-129.3"/>
</g>
<!-- TodoComponent -->
<g id="node9" class="node">
<title>TodoComponent</title>
<polygon fill="#ffffb3" stroke="black" points="435.38,-84.8 324.62,-84.8 324.62,-48.8 435.38,-48.8 435.38,-84.8"/>
<text text-anchor="middle" x="380" y="-62.6" font-family="Times,serif" font-size="14.00">TodoComponent</text>
</g>
<!-- TodoComponent&#45;&gt;AppModule -->
<g id="edge9" class="edge">
<title>TodoComponent&#45;&gt;AppModule</title>
<path fill="none" stroke="black" d="M380,-84.91C380,-104.14 380,-131.8 380,-131.8 380,-131.8 815.97,-131.8 815.97,-131.8"/>
<polygon fill="black" stroke="black" points="815.97,-135.3 825.97,-131.8 815.97,-128.3 815.97,-135.3"/>
</g>
<!-- TodosComponent -->
<g id="node10" class="node">
<title>TodosComponent</title>
<polygon fill="#ffffb3" stroke="black" points="306.33,-84.8 189.67,-84.8 189.67,-48.8 306.33,-48.8 306.33,-84.8"/>
<text text-anchor="middle" x="248" y="-62.6" font-family="Times,serif" font-size="14.00">TodosComponent</text>
</g>
<!-- TodosComponent&#45;&gt;AppModule -->
<g id="edge10" class="edge">
<title>TodosComponent&#45;&gt;AppModule</title>
<path fill="none" stroke="black" d="M248,-85.08C248,-106.12 248,-137.8 248,-137.8 248,-137.8 815.87,-137.8 815.87,-137.8"/>
<polygon fill="black" stroke="black" points="815.87,-141.3 825.87,-137.8 815.87,-134.3 815.87,-141.3"/>
</g>
<!-- UserDetailsComponent -->
<g id="node11" class="node">
<title>UserDetailsComponent</title>
<polygon fill="#ffffb3" stroke="black" points="171.92,-84.8 24.08,-84.8 24.08,-48.8 171.92,-48.8 171.92,-84.8"/>
<text text-anchor="middle" x="98" y="-62.6" font-family="Times,serif" font-size="14.00">UserDetailsComponent</text>
</g>
<!-- UserDetailsComponent&#45;&gt;AppModule -->
<g id="edge11" class="edge">
<title>UserDetailsComponent&#45;&gt;AppModule</title>
<path fill="none" stroke="black" d="M98,-85.05C98,-107.82 98,-143.8 98,-143.8 98,-143.8 816.33,-143.8 816.33,-143.8"/>
<polygon fill="black" stroke="black" points="816.33,-147.3 826.33,-143.8 816.33,-140.3 816.33,-147.3"/>
</g>
<!-- AppComponent  -->
<g id="node14" class="node">
<title>AppComponent </title>
<polygon fill="#80b1d3" stroke="black" points="922.44,-214.8 813.56,-214.8 813.56,-178.8 922.44,-178.8 922.44,-214.8"/>
<text text-anchor="middle" x="868" y="-192.6" font-family="Times,serif" font-size="14.00">AppComponent </text>
</g>
<!-- AppModule&#45;&gt;AppComponent  -->
<g id="edge13" class="edge">
<title>AppModule&#45;&gt;AppComponent </title>
<path fill="none" stroke="black" stroke-dasharray="1,5" d="M868,-149.91C868,-149.91 868,-168.79 868,-168.79"/>
<polygon fill="black" stroke="black" points="864.5,-168.79 868,-178.79 871.5,-168.79 864.5,-168.79"/>
</g>
<!-- AppRoutingModule -->
<g id="node13" class="node">
<title>AppRoutingModule</title>
<polygon fill="#8dd3c7" stroke="black" points="1737.28,-84.8 1734.28,-88.8 1713.28,-88.8 1710.28,-84.8 1608.72,-84.8 1608.72,-48.8 1737.28,-48.8 1737.28,-84.8"/>
<text text-anchor="middle" x="1673" y="-62.6" font-family="Times,serif" font-size="14.00">AppRoutingModule</text>
</g>
<!-- AppRoutingModule&#45;&gt;AppModule -->
<g id="edge12" class="edge">
<title>AppRoutingModule&#45;&gt;AppModule</title>
<path fill="none" stroke="black" d="M1673,-85.05C1673,-107.82 1673,-143.8 1673,-143.8 1673,-143.8 919.87,-143.8 919.87,-143.8"/>
<polygon fill="black" stroke="black" points="919.87,-140.3 909.87,-143.8 919.87,-147.3 919.87,-140.3"/>
</g>
</g>
</svg>
