<?xml version="1.0" encoding="UTF-8" standalone="no"?>
<!DOCTYPE svg PUBLIC "-//W3C//DTD SVG 1.1//EN"
 "http://www.w3.org/Graphics/SVG/1.1/DTD/svg11.dtd">
<!-- Generated by graphviz version 5.0.0 (20220707.1540)
 -->
<!-- Title: dependencies Pages: 1 -->
<svg width="1769pt" height="247pt"
 viewBox="0.00 0.00 1769.00 246.80" xmlns="http://www.w3.org/2000/svg" xmlns:xlink="http://www.w3.org/1999/xlink">
<g id="graph0" class="graph" transform="scale(1 1) rotate(0) translate(4 242.8)">
<title>dependencies</title>
<polygon fill="white" stroke="transparent" points="-4,4 -4,-242.8 1765,-242.8 1765,4 -4,4"/>
<text text-anchor="middle" x="880.5" y="-8.2" font-family="sans-serif" font-size="14.00">dependencies</text>
<g id="clust1" class="cluster">
<title>cluster_AppModule</title>
<polygon fill="none" stroke="black" stroke-dasharray="1,5" points="8,-32.8 8,-230.8 1753,-230.8 1753,-32.8 8,-32.8"/>
</g>
<g id="clust2" class="cluster">
<title>cluster_AppModule_declarations</title>
<polygon fill="none" stroke="black" points="168,-40.8 168,-92.8 1745,-92.8 1745,-40.8 168,-40.8"/>
</g>
<g id="clust14" class="cluster">
<title>cluster_AppModule_imports</title>
<polygon fill="none" stroke="black" points="16,-40.8 16,-92.8 160,-92.8 160,-40.8 16,-40.8"/>
</g>
<g id="clust16" class="cluster">
<title>cluster_AppModule_bootstrap</title>
<polygon fill="none" stroke="black" points="824,-170.8 824,-222.8 948,-222.8 948,-170.8 824,-170.8"/>
</g>
<!-- AppComponent -->
<g id="node1" class="node">
<title>AppComponent</title>
<polygon fill="#ffffb3" stroke="black" points="1736.94,-84.8 1631.06,-84.8 1631.06,-48.8 1736.94,-48.8 1736.94,-84.8"/>
<text text-anchor="middle" x="1684" y="-62.6" font-family="Times,serif" font-size="14.00">AppComponent</text>
</g>
<!-- AppModule -->
<g id="node12" class="node">
<title>AppModule</title>
<polygon fill="#8dd3c7" stroke="black" points="927.66,-149.8 924.66,-153.8 903.66,-153.8 900.66,-149.8 844.34,-149.8 844.34,-113.8 927.66,-113.8 927.66,-149.8"/>
<text text-anchor="middle" x="886" y="-127.6" font-family="Times,serif" font-size="14.00">AppModule</text>
</g>
<!-- AppComponent&#45;&gt;AppModule -->
<g id="edge1" class="edge">
<title>AppComponent&#45;&gt;AppModule</title>
<path fill="none" stroke="black" d="M1684,-85.05C1684,-107.82 1684,-143.8 1684,-143.8 1684,-143.8 937.78,-143.8 937.78,-143.8"/>
<polygon fill="black" stroke="black" points="937.78,-140.3 927.78,-143.8 937.78,-147.3 937.78,-140.3"/>
</g>
<!-- DeletedTodoComponent -->
<g id="node2" class="node">
<title>DeletedTodoComponent</title>
<polygon fill="#ffffb3" stroke="black" points="1613.41,-84.8 1458.59,-84.8 1458.59,-48.8 1613.41,-48.8 1613.41,-84.8"/>
<text text-anchor="middle" x="1536" y="-62.6" font-family="Times,serif" font-size="14.00">DeletedTodoComponent</text>
</g>
<!-- DeletedTodoComponent&#45;&gt;AppModule -->
<g id="edge2" class="edge">
<title>DeletedTodoComponent&#45;&gt;AppModule</title>
<path fill="none" stroke="black" d="M1536,-85.08C1536,-106.12 1536,-137.8 1536,-137.8 1536,-137.8 938.15,-137.8 938.15,-137.8"/>
<polygon fill="black" stroke="black" points="938.15,-134.3 928.15,-137.8 938.15,-141.3 938.15,-134.3"/>
</g>
<!-- FavoriteTodoComponent -->
<g id="node3" class="node">
<title>FavoriteTodoComponent</title>
<polygon fill="#ffffb3" stroke="black" points="1440.54,-84.8 1283.46,-84.8 1283.46,-48.8 1440.54,-48.8 1440.54,-84.8"/>
<text text-anchor="middle" x="1362" y="-62.6" font-family="Times,serif" font-size="14.00">FavoriteTodoComponent</text>
</g>
<!-- FavoriteTodoComponent&#45;&gt;AppModule -->
<g id="edge3" class="edge">
<title>FavoriteTodoComponent&#45;&gt;AppModule</title>
<path fill="none" stroke="black" d="M1362,-84.91C1362,-104.14 1362,-131.8 1362,-131.8 1362,-131.8 937.82,-131.8 937.82,-131.8"/>
<polygon fill="black" stroke="black" points="937.82,-128.3 927.82,-131.8 937.82,-135.3 937.82,-128.3"/>
</g>
<!-- HttpComponent -->
<g id="node4" class="node">
<title>HttpComponent</title>
<polygon fill="#ffffb3" stroke="black" points="1265.22,-84.8 1158.78,-84.8 1158.78,-48.8 1265.22,-48.8 1265.22,-84.8"/>
<text text-anchor="middle" x="1212" y="-62.6" font-family="Times,serif" font-size="14.00">HttpComponent</text>
</g>
<!-- HttpComponent&#45;&gt;AppModule -->
<g id="edge4" class="edge">
<title>HttpComponent&#45;&gt;AppModule</title>
<path fill="none" stroke="black" d="M1212,-84.82C1212,-102.17 1212,-125.8 1212,-125.8 1212,-125.8 937.95,-125.8 937.95,-125.8"/>
<polygon fill="black" stroke="black" points="937.95,-122.3 927.95,-125.8 937.95,-129.3 937.95,-122.3"/>
</g>
<!-- LoginComponent -->
<g id="node5" class="node">
<title>LoginComponent</title>
<polygon fill="#ffffb3" stroke="black" points="1141.27,-84.8 1026.73,-84.8 1026.73,-48.8 1141.27,-48.8 1141.27,-84.8"/>
<text text-anchor="middle" x="1084" y="-62.6" font-family="Times,serif" font-size="14.00">LoginComponent</text>
</g>
<!-- LoginComponent&#45;&gt;AppModule -->
<g id="edge5" class="edge">
<title>LoginComponent&#45;&gt;AppModule</title>
<path fill="none" stroke="black" d="M1084,-85.04C1084,-100.37 1084,-119.8 1084,-119.8 1084,-119.8 937.99,-119.8 937.99,-119.8"/>
<polygon fill="black" stroke="black" points="937.99,-116.3 927.99,-119.8 937.99,-123.3 937.99,-116.3"/>
</g>
<!-- NavComponent -->
<g id="node6" class="node">
<title>NavComponent</title>
<polygon fill="#ffffb3" stroke="black" points="1008.16,-84.8 903.84,-84.8 903.84,-48.8 1008.16,-48.8 1008.16,-84.8"/>
<text text-anchor="middle" x="956" y="-62.6" font-family="Times,serif" font-size="14.00">NavComponent</text>
</g>
<!-- NavComponent&#45;&gt;AppModule -->
<g id="edge6" class="edge">
<title>NavComponent&#45;&gt;AppModule</title>
<path fill="none" stroke="black" d="M915.75,-84.91C915.75,-84.91 915.75,-103.79 915.75,-103.79"/>
<polygon fill="black" stroke="black" points="912.25,-103.79 915.75,-113.79 919.25,-103.79 912.25,-103.79"/>
</g>
<!-- NotFoundComponent -->
<g id="node7" class="node">
<title>NotFoundComponent</title>
<polygon fill="#ffffb3" stroke="black" points="886.12,-84.8 747.88,-84.8 747.88,-48.8 886.12,-48.8 886.12,-84.8"/>
<text text-anchor="middle" x="817" y="-62.6" font-family="Times,serif" font-size="14.00">NotFoundComponent</text>
</g>
<!-- NotFoundComponent&#45;&gt;AppModule -->
<g id="edge7" class="edge">
<title>NotFoundComponent&#45;&gt;AppModule</title>
<path fill="none" stroke="black" d="M865.11,-84.91C865.11,-84.91 865.11,-103.79 865.11,-103.79"/>
<polygon fill="black" stroke="black" points="861.61,-103.79 865.11,-113.79 868.61,-103.79 861.61,-103.79"/>
</g>
<!-- SignUpComponent -->
<g id="node8" class="node">
<title>SignUpComponent</title>
<polygon fill="#ffffb3" stroke="black" points="730.12,-84.8 605.88,-84.8 605.88,-48.8 730.12,-48.8 730.12,-84.8"/>
<text text-anchor="middle" x="668" y="-62.6" font-family="Times,serif" font-size="14.00">SignUpComponent</text>
</g>
<!-- SignUpComponent&#45;&gt;AppModule -->
<g id="edge8" class="edge">
<title>SignUpComponent&#45;&gt;AppModule</title>
<path fill="none" stroke="black" d="M668,-85.04C668,-100.37 668,-119.8 668,-119.8 668,-119.8 834.23,-119.8 834.23,-119.8"/>
<polygon fill="black" stroke="black" points="834.23,-123.3 844.23,-119.8 834.23,-116.3 834.23,-123.3"/>
</g>
<!-- TodoComponent -->
<g id="node9" class="node">
<title>TodoComponent</title>
<polygon fill="#ffffb3" stroke="black" points="587.38,-84.8 476.62,-84.8 476.62,-48.8 587.38,-48.8 587.38,-84.8"/>
<text text-anchor="middle" x="532" y="-62.6" font-family="Times,serif" font-size="14.00">TodoComponent</text>
</g>
<!-- TodoComponent&#45;&gt;AppModule -->
<g id="edge9" class="edge">
<title>TodoComponent&#45;&gt;AppModule</title>
<path fill="none" stroke="black" d="M532,-84.82C532,-102.17 532,-125.8 532,-125.8 532,-125.8 834,-125.8 834,-125.8"/>
<polygon fill="black" stroke="black" points="834,-129.3 844,-125.8 834,-122.3 834,-129.3"/>
</g>
<!-- TodosComponent -->
<g id="node10" class="node">
<title>TodosComponent</title>
<polygon fill="#ffffb3" stroke="black" points="458.33,-84.8 341.67,-84.8 341.67,-48.8 458.33,-48.8 458.33,-84.8"/>
<text text-anchor="middle" x="400" y="-62.6" font-family="Times,serif" font-size="14.00">TodosComponent</text>
</g>
<!-- TodosComponent&#45;&gt;AppModule -->
<g id="edge10" class="edge">
<title>TodosComponent&#45;&gt;AppModule</title>
<path fill="none" stroke="black" d="M400,-84.91C400,-104.14 400,-131.8 400,-131.8 400,-131.8 834.14,-131.8 834.14,-131.8"/>
<polygon fill="black" stroke="black" points="834.14,-135.3 844.14,-131.8 834.14,-128.3 834.14,-135.3"/>
</g>
<!-- UserDetailsComponent -->
<g id="node11" class="node">
<title>UserDetailsComponent</title>
<polygon fill="#ffffb3" stroke="black" points="323.92,-84.8 176.08,-84.8 176.08,-48.8 323.92,-48.8 323.92,-84.8"/>
<text text-anchor="middle" x="250" y="-62.6" font-family="Times,serif" font-size="14.00">UserDetailsComponent</text>
</g>
<!-- UserDetailsComponent&#45;&gt;AppModule -->
<g id="edge11" class="edge">
<title>UserDetailsComponent&#45;&gt;AppModule</title>
<path fill="none" stroke="black" d="M250,-85.08C250,-106.12 250,-137.8 250,-137.8 250,-137.8 834.27,-137.8 834.27,-137.8"/>
<polygon fill="black" stroke="black" points="834.27,-141.3 844.27,-137.8 834.27,-134.3 834.27,-141.3"/>
</g>
<!-- AppComponent  -->
<g id="node14" class="node">
<title>AppComponent </title>
<polygon fill="#80b1d3" stroke="black" points="940.44,-214.8 831.56,-214.8 831.56,-178.8 940.44,-178.8 940.44,-214.8"/>
<text text-anchor="middle" x="886" y="-192.6" font-family="Times,serif" font-size="14.00">AppComponent </text>
</g>
<!-- AppModule&#45;&gt;AppComponent  -->
<g id="edge13" class="edge">
<title>AppModule&#45;&gt;AppComponent </title>
<path fill="none" stroke="black" stroke-dasharray="1,5" d="M886,-149.91C886,-149.91 886,-168.79 886,-168.79"/>
<polygon fill="black" stroke="black" points="882.5,-168.79 886,-178.79 889.5,-168.79 882.5,-168.79"/>
</g>
<!-- AppRoutingModule -->
<g id="node13" class="node">
<title>AppRoutingModule</title>
<polygon fill="#8dd3c7" stroke="black" points="152.28,-84.8 149.28,-88.8 128.28,-88.8 125.28,-84.8 23.72,-84.8 23.72,-48.8 152.28,-48.8 152.28,-84.8"/>
<text text-anchor="middle" x="88" y="-62.6" font-family="Times,serif" font-size="14.00">AppRoutingModule</text>
</g>
<!-- AppRoutingModule&#45;&gt;AppModule -->
<g id="edge12" class="edge">
<title>AppRoutingModule&#45;&gt;AppModule</title>
<path fill="none" stroke="black" d="M88,-85.05C88,-107.82 88,-143.8 88,-143.8 88,-143.8 834.22,-143.8 834.22,-143.8"/>
<polygon fill="black" stroke="black" points="834.22,-147.3 844.22,-143.8 834.22,-140.3 834.22,-147.3"/>
</g>
</g>
</svg>
